<?xml version="1.0" encoding="utf-8"?>
<!-- Generator: Adobe Illustrator 24.3.0, SVG Export Plug-In . SVG Version: 6.00 Build 0)  -->
<svg version="1.1" id="圖層_1" xmlns="http://www.w3.org/2000/svg" xmlns:xlink="http://www.w3.org/1999/xlink" x="0px" y="0px"
	 viewBox="0 0 960.6 291.4" style="enable-background:new 0 0 960.6 291.4;" xml:space="preserve">
<style type="text/css">
	.st0{clip-path:url(#SVGID_2_);fill:#FFD3D2;}
	.st1{clip-path:url(#SVGID_2_);fill:#E2918F;}
	.st2{clip-path:url(#SVGID_2_);fill:#1A4172;}
	.st3{clip-path:url(#SVGID_2_);fill:#432D4E;}
	.st4{clip-path:url(#SVGID_2_);fill:#D48B57;}
	.st5{clip-path:url(#SVGID_2_);fill:#4C7C89;}
	.st6{clip-path:url(#SVGID_2_);fill:#E7ECFB;}
	.st7{clip-path:url(#SVGID_2_);fill:#E5B39E;}
	.st8{clip-path:url(#SVGID_2_);fill:#CD6868;}
	.st9{clip-path:url(#SVGID_2_);fill:#0E0E35;}
	.st10{clip-path:url(#SVGID_2_);fill:#24153B;}
	.st11{clip-path:url(#SVGID_2_);}
	.st12{fill:#FFFFFF;}
	.st13{fill:#1A4172;}
	.st14{fill:#432D4E;}
	.st15{fill:#CD6868;}
	.st16{fill:#E5B39E;}
	.st17{fill:#0D0D25;}
	.st18{fill:#DC7167;}
	.st19{fill:#E2918F;}
	.st20{fill:#997686;}
	.st21{fill:#0E0E35;}
	.st22{fill:#84667F;}
	.st23{fill:#DEE5FC;}
</style>
<g>
	<defs>
		<rect id="SVGID_1_" x="-100.8" y="-43.9" width="1101.4" height="362"/>
	</defs>
	<clipPath id="SVGID_2_">
		<use xlink:href="#SVGID_1_"  style="overflow:visible;"/>
	</clipPath>
	<path class="st0" d="M929.2,280.2c0,138.2-155.8,230.4-330,230.4s-370.6-89.7-349.1-226.2C264.5,193.2,321.9,167,430,133.2
		C518.2,105.6,512,12.6,638.9,12.7c118,0.1,152,58,195.8,95.9S929.2,186.9,929.2,280.2z"/>
	<path class="st1" d="M559.2,285.7c0,0-5.5,9.5-6.7,13.3s-5.3,6.7-3.4,8.1s7-4.5,7-4.5s1.4,8.1,1.4,10.7s1.3,7.1,3.2,7.2
		s0.8-12.2,0.8-12.2s1.9,10.3,3.6,10.8s1.2-12.9,1.2-12.9s1.5,11.1,2.4,11.8s1.9-0.3,2.3-4.4c0.2-2.8,0.2-5.5-0.2-8.3
		c0,0,1.6,7.7,2.1,8.5s1.8,1.6,1.8-4.4s-2.2-19.1-5.9-25.2L559.2,285.7z"/>
	<path class="st2" d="M484.3,54.6c0,0,22.8-10,34.2,13s17,49.8,10.3,61.2s-28.8,8-28.8,8s-26.6,5.4-37.1-6S457.4,60.9,484.3,54.6z"
		/>
	<polygon class="st3" points="541.2,300.8 549.7,459 459.6,462 456.2,300.8 464,270.5 509.6,261.1 	"/>
	<path class="st4" d="M453.2,144.4l32.3-13.3l20-0.2c0,0,29.3,13.5,32.2,16.7s32.1,130.9,37,137.1c0,0-6.4,7.6-20.8,7.6
		c0,0-9.8-30.4-13.3-50l7.2,70.2c0,0-44.1,12.1-68.9,2.9l-9.8-35.6l-3.2,35.3c-4.1,1.1-8.5,1.4-12.7,1L453.2,144.4z"/>
	
		<rect x="489.9" y="184.5" transform="matrix(0.9662 -0.2576 0.2576 0.9662 -38.6549 140.1344)" class="st5" width="51.2" height="66.2"/>
	<path class="st6" d="M485.9,196.5l-4.7,1.3c-0.4,0.1-0.7-0.1-0.8-0.5c-0.1-0.4,0.1-0.7,0.5-0.8l4.7-1.3c0.4-0.1,0.7,0.1,0.9,0.4
		c0.1,0.4-0.1,0.7-0.4,0.9C486,196.5,486,196.5,485.9,196.5z"/>
	<path class="st6" d="M488.3,205.3l-4.7,1.3c-0.4,0.1-0.7-0.1-0.8-0.5c-0.1-0.4,0.1-0.7,0.5-0.8l0,0l4.7-1.3
		c0.4-0.1,0.7,0.1,0.8,0.5l0,0C488.9,204.9,488.7,205.2,488.3,205.3L488.3,205.3z"/>
	<path class="st6" d="M490.3,213l-4.7,1.3c-0.4,0.1-0.7-0.1-0.8-0.5c-0.1-0.4,0.1-0.7,0.5-0.8l0,0l4.7-1.3c0.4-0.1,0.7,0.1,0.8,0.5
		l0,0C490.9,212.6,490.7,212.9,490.3,213z"/>
	<path class="st6" d="M492.5,221.1l-4.7,1.3c-0.4,0.1-0.7-0.1-0.9-0.4c-0.1-0.4,0.1-0.7,0.4-0.9h0.1l4.7-1.3
		c0.4-0.1,0.7,0.1,0.9,0.4c0.1,0.4-0.1,0.7-0.4,0.9C492.5,221.1,492.5,221.1,492.5,221.1z"/>
	<path class="st6" d="M494.6,229.1l-4.7,1.3c-0.4,0.1-0.7-0.1-0.8-0.5c-0.1-0.4,0.1-0.7,0.5-0.8l0,0l4.7-1.3
		c0.4-0.1,0.7,0.1,0.8,0.5C495.2,228.7,495,229,494.6,229.1z"/>
	<path class="st6" d="M496.8,237.2l-4.8,1.3c-0.4,0.1-0.7-0.2-0.8-0.5c-0.1-0.3,0.1-0.7,0.4-0.8l4.7-1.3c0.4-0.1,0.7,0.1,0.9,0.4
		C497.4,236.6,497.2,237,496.8,237.2C496.8,237.1,496.8,237.2,496.8,237.2L496.8,237.2z"/>
	<path class="st6" d="M499.5,247.7l-4.7,1.3c-0.4,0.1-0.7-0.1-0.8-0.5l0,0c-0.1-0.4,0.1-0.7,0.5-0.8l4.7-1.3
		c0.4-0.1,0.7,0.1,0.9,0.4c0.1,0.4-0.1,0.7-0.4,0.9C499.6,247.6,499.6,247.6,499.5,247.7L499.5,247.7z"/>
	<path class="st7" d="M512.6,217.7c0,0,7-9.8,10.3-12.8s4.3-8.3,6.6-7.1s-1.3,9-1.3,9s8.8-2.3,11.4-3.5s7.7-2,8.7-0.1
		s-11.8,6.4-11.8,6.4s6.4-1.9,7.6-0.4s-7.6,6.2-7.6,6.2s6.6-2.5,7.7-1.9s0.5,2-3.3,4.3s-3.2,2.5-3.2,2.5s3.7-2,4.8-1.9
		s1.5,2.3-4.6,5.1s-13.5,5.6-21.4,4.7L512.6,217.7z"/>
	<path class="st4" d="M453.2,144.4c-16.3,12.1-50.2,79.3-10.5,99.9s78.4-11.4,78.4-11.4l-9.8-18.3c0,0-42.8,12.4-49.3-1
		s-0.3-26.4-0.3-26.4S454.2,148,453.2,144.4L453.2,144.4z"/>
	<path class="st8" d="M515.9,92.2c0,0,1.8-3,3.4-1.9c4.1,2.9,0,7.1-2.6,8.1L515.9,92.2z"/>
	<path class="st7" d="M489.5,54.6c-13.2,1.5-22.7,13.4-21.2,26.6c0.3,2.8,1.1,5.6,2.4,8.1c3.7,8.2,6.8,14.9,10.4,19.6
		c3.7,4.8,5.5,10.8,5,16.8l-0.6,6.1c14.3,6.4,20.1-0.9,20.1-0.9l-0.6-14l0,0c15-2.5,11.7-30.4,11.4-38.6l0,0c0-0.3,0-0.6,0-0.9
		c-0.6-13.3-11.9-23.6-25.2-22.9C490.6,54.5,490,54.5,489.5,54.6z"/>
	<path class="st9" d="M510.2,89.7c0.1-1.2-0.8-2.1-2-2.2s-2.1,0.8-2.2,2s0.8,2.1,2,2.2C509.1,91.7,510.1,90.8,510.2,89.7L510.2,89.7
		z"/>
	<path class="st9" d="M490.7,93.3c0.1-1.2-0.8-2.1-2-2.2s-2.1,0.8-2.2,2s0.8,2.1,2,2.2C489.7,95.3,490.7,94.4,490.7,93.3z"/>
	<path class="st8" d="M508.1,105.1c0,0-1.9-1.1-2.9-0.7c-0.7,0.4-1.2,1-1.5,1.8c-0.5-0.7-1.2-1.1-2.1-1.1c-1.7,0.4-3.3,0.9-4.8,1.5
		c0,0,3.9,5.2,7.7,3.8c2.2-0.7,3.6-2.7,3.6-5L508.1,105.1z"/>
	<path class="st10" d="M504.7,107.7c-4.4,1.4-9-1.4-9.1-1.5s-0.2-0.3-0.1-0.4s0.3-0.2,0.4-0.1c0.3,0.2,7.6,4.6,12.1-1.1
		c0.1-0.1,0.3-0.1,0.4,0s0.1,0.3,0,0.4C507.5,106.3,506.2,107.2,504.7,107.7z"/>
	<path class="st9" d="M485.2,90.1c-0.3,0-0.5-0.1-0.7-0.3c-0.3-0.4-0.3-0.9,0.1-1.2l0,0c1.9-1.4,4.3-2.1,6.7-2
		c0.5,0,0.9,0.4,0.8,0.9l0,0c0,0.5-0.4,0.8-0.9,0.8c-2-0.1-3.9,0.5-5.5,1.6C485.6,90.1,485.4,90.1,485.2,90.1z"/>
	<path class="st9" d="M506.4,85.5c-0.5-0.1-0.8-0.6-0.7-1c0-0.3,0.2-0.5,0.4-0.6c2.2-1.1,4.6-1.4,7-0.8c0.5,0.1,0.8,0.6,0.7,1l0,0
		c-0.1,0.4-0.5,0.7-1,0.7c-1.9-0.4-3.9-0.2-5.7,0.6C506.9,85.5,506.6,85.6,506.4,85.5z"/>
	<path class="st8" d="M502.1,100.3c1.8-0.2,3.1-1.7,3.2-3.5c0-0.2-0.1-0.4-0.2-0.5c-2.4-2.6-2.3-6.6-2.3-6.6c0-0.4-0.4-0.7-0.8-0.6
		c-0.3,0-0.6,0.3-0.6,0.6c0,2.7,0.9,5.3,2.5,7.4c-0.1,0.6-0.7,1.9-3,1.9c-0.4,0-0.7,0.3-0.7,0.7l0,0c0,0.4,0.3,0.7,0.7,0.7
		C501.2,100.5,501.6,100.4,502.1,100.3z"/>
	<path class="st2" d="M490.1,69.3c0,0,9.4,7.1,17.6,13.5c8.2,6.5,6,32.2,6,32.2l8.8-22c0,0-3.1-44.5-33.4-39.8S467,89.9,472,96.2
		s5.2,1.5,5.2,1.5S489.3,75.1,490.1,69.3z"/>
	<path class="st1" d="M478.3,95.7c-0.4-0.8-1.1-1.3-2-1.6c-1.7-0.6-4.7-1.2-6.6,0.9c-2.8,3.1,3.5,10.6,9.2,6.5
		C479,101.5,480.6,99.8,478.3,95.7z"/>
	<path class="st9" d="M479.2,221.2c-6.4,0-11.5-1.5-15-4.5c-3.2-2.9-5.1-7-5.1-11.3c0-0.2,0.1-0.3,0.3-0.3l0,0
		c0.2,0,0.3,0.2,0.3,0.3l0,0c0,4.1,1.8,8.1,4.9,10.8c5.1,4.4,13.6,5.5,25.2,3.3c0.2,0,0.3,0.1,0.4,0.2c0,0.2-0.1,0.3-0.2,0.4l0,0
		C486.5,220.8,482.9,221.2,479.2,221.2z"/>
	<path class="st9" d="M473.5,251.2c-6.8,0-13.7-0.8-20.3-2.3c-0.2,0-0.3-0.2-0.2-0.4c0-0.2,0.2-0.3,0.4-0.2l0,0
		c0.3,0.1,25.6,6.3,43.2-2.2c0.2-0.1,0.3,0,0.4,0.1c0.1,0.2,0,0.3-0.1,0.4C489.6,250.1,481.1,251.2,473.5,251.2z"/>
	<g class="st11">
		<polygon class="st12" points="725.8,153.6 715.7,278.1 770.3,281.7 784.5,158.6 778.2,137.2 744.7,121.3 		"/>
		<path class="st13" d="M799.2,278l21.6,269.2l-33.8,2.9c0,0-36.8-197.1-39.3-194.5s-22.2,199.8-22.2,199.8l-31.8-4
			c-12.2-221.2,0.3-282,0.3-282L799.2,278z"/>
		<path class="st14" d="M838.4,210.8c15.7,36.9,18.5,110.1,18.5,110.1l-23.7,2.1c0,0-8.2-32.2-12.2-43.7s-19.4-37.8-19.4-37.8
			l2.1,72.2l-42.2,1.2c0,0,2.6-37.4,2.2-55.7c-0.4-18.3,14.5-122.1,14.5-122.1C816.4,155.4,822.7,173.9,838.4,210.8z"/>
		<path class="st15" d="M745.1,89.4c-2.4-1.5-5.4-6.5-0.6-8.6c1.9-0.8,3.1,2.7,3.1,2.7L745.1,89.4z"/>
		<path class="st16" d="M753,113.8L753,113.8c1.4,0.5,2.2,1.9,1.9,3.3l-2.5,10.8c0,0,4.9,9.1,21.9,5l0.5-6.1
			c0.6-7.7,3.8-15.1,8.9-20.9c3.1-3.5,6.3-7.9,10-13c2.2-2.8,3.7-5.9,4.6-9.3c3.4-13.4-4.7-27.1-18.1-30.5
			c-13.4-3.4-27.1,4.7-30.5,18.1c-0.1,0.4-0.1,0.7-0.2,1l0,0C747.4,80.6,734.8,108.1,753,113.8z"/>
		<path class="st17" d="M771.3,91.4c-0.3,1.2,0.5,2.5,1.7,2.8s2.5-0.5,2.8-1.7c0.3-1.2-0.5-2.5-1.7-2.8
			C772.9,89.4,771.6,90.2,771.3,91.4L771.3,91.4z"/>
		<path class="st17" d="M753.9,85L753.9,85c1.2,0.3,2.5-0.4,2.8-1.7c0.3-1.2-0.4-2.5-1.7-2.8c-1.2-0.3-2.5,0.4-2.8,1.7
			C751.9,83.5,752.7,84.7,753.9,85z"/>
		<path class="st17" d="M779.3,89c0-0.1-1.2-3.8-5.9-2.8c-0.7,0.1-1.3-0.4-1.5-1c-0.2-0.7,0.2-1.5,0.9-1.7c5.7-1.3,8.4,2.5,9.1,4.7
			c0.2,0.7-0.2,1.5-0.9,1.7c-0.2,0.1-0.5,0.1-0.7,0C779.9,89.8,779.5,89.4,779.3,89z"/>
		<path class="st17" d="M758.9,80.1c0-0.1-1.2-3.8-5.9-2.8c-0.7,0.1-1.4-0.4-1.6-1.1c-0.1-0.7,0.4-1.4,1.1-1.6
			c5.7-1.3,8.5,2.5,9.1,4.7l0,0c0.2,0.7-0.2,1.5-0.9,1.7c-0.2,0.1-0.5,0.1-0.7,0C759.5,80.8,759.2,80.5,758.9,80.1z"/>
		<polygon class="st18" points="787.9,76.8 785.1,98.7 789.3,100.7 800.1,85.9 		"/>
		<path class="st19" d="M782.7,103.8c4.9,5.4,12.9-0.9,10.7-4.7c-1.5-2.5-4.6-2.5-6.5-2.3c-0.9,0.1-1.7,0.5-2.3,1.2
			C781.4,101.6,782.7,103.7,782.7,103.8z"/>
		<path class="st15" d="M756.5,95.3c-0.4-0.4-0.6-1-0.5-1.5c0.1-0.6,0.7-1,1.4-1.4c2.3-1.3,4-3.4,4.8-5.9c0.1-0.2,0.3-0.3,0.5-0.2
			s0.4,0.3,0.3,0.5c-0.9,2.6-2.7,4.9-5.1,6.3c-0.5,0.4-0.9,0.6-1,0.9c0.1,0.3,0.2,0.6,0.4,0.9c0.8,1.5,2.6,2.2,4.2,1.8
			c0.2,0,0.4,0.1,0.5,0.3c0,0.2-0.1,0.4-0.3,0.5c-1.4,0.4-2.9,0.1-4.1-0.9C757.2,96.3,756.9,95.9,756.5,95.3z"/>
		<path class="st12" d="M755.9,107c-5.3-1.9-4.9-9.4-4.9-9.4c5.2,4.2,14.7,5.4,14.7,5.4S761.2,108.9,755.9,107z"/>
		<path class="st18" d="M752.4,61.8c-2.3,1.4-5.3,18.1-5.3,18.1c4.6-14.5,8.7-16.1,8.7-16.1S754.7,60.4,752.4,61.8z"/>
		<path class="st18" d="M798,87c-4.7,0.4-7.5-7.8-10.3-10.5c-6.1-5.8-15.7-5.2-23.9-7c-2.1-0.4-4.1-1.1-6-2.2
			c-5.8-3.5-7.9-10.9-9.4-17.6c-0.3-1.2-0.5-2.7,0.3-3.6c6.6,1.8,13.4,2.9,20.3,3.4c-2.8-2.6-5.4-5.6-7.6-8.7l24.8,11.7
			c-2.6-3.4-4.7-7.2-5.9-11.3c5.1,5.4,14.3,6.4,18.3,12.7C811.2,73.5,802.1,86.7,798,87z"/>
		<polygon class="st18" points="760.2,135 764.9,141.2 758.7,146.2 753.9,144.4 753.1,135.6 		"/>
		<polygon class="st12" points="765.1,143.1 759.6,135.9 750.1,136.9 750.6,124.1 753.6,123 760.5,133.4 774.6,129.8 776.1,136.2 		
			"/>
		<polygon class="st18" points="758.8,144.7 758.9,255.1 739,277.7 728.3,250.4 753.9,144.4 		"/>
		<path class="st14" d="M741.1,131.3c0,0-19.8,102.5-25.4,119.9c-5.6,17.4-14.7,53.7-14.7,53.7l-29.5-10.4l22.6-68.6
			c0,0-18.6,21.8-24.8,32s-21.4,39.2-21.4,39.2l-16.2-7.1c0,0,23.4-69.4,45.3-101.3C698.9,156.8,708.7,140.5,741.1,131.3z"/>
		<polygon class="st20" points="743.3,129.5 719.5,236.3 720.3,168.5 728.6,166.7 726.8,133.6 		"/>
		<polygon class="st20" points="777.4,135.1 764.5,243.8 786.2,179.5 779,175.1 791.6,144.5 		"/>
	</g>
	<g class="st11">
		<path class="st21" d="M610,89.4c-0.4-2.6-3-22.6,17-32.5c20-9.9,40.1,14.4,40.1,14.4c7,35.7-23.4,45.7-23.4,45.7
			S610.4,92,610,89.4z"/>
		<path class="st16" d="M637.8,58.8c-13.7-1-25.7,9.3-26.7,23c-0.1,0.4-0.1,0.7-0.1,1l0,0c-0.7,8.5-4.9,37.2,10.6,40.2l0,0
			l-1.1,14.4c0,0,5.8,7.6,20.8,1.5l-0.4-6.3c-0.4-6.2,1.6-12.4,5.6-17.2c3.9-4.9,7.2-11.6,11.3-20c1.4-2.6,2.3-5.4,2.7-8.3
			c2-13.6-7.5-26.2-21.1-28.1C638.8,59,638.3,58.9,637.8,58.8z"/>
		<path class="st21" d="M615.1,94.6c0.1,1.2,1.1,2.2,2.2,2.1c1.2,0,2.1-1,2.1-2.2s-1-2.1-2.2-2.1S615.1,93.4,615.1,94.6L615.1,94.6z
			"/>
		<path class="st21" d="M635.4,98.4c0.1,1.2,1,2.2,2.2,2.1c1.2,0,2.1-1,2.1-2.2s-1-2.1-2.2-2.1C636.3,96.2,635.4,97.2,635.4,98.4
			L635.4,98.4z"/>
		<path class="st21" d="M641.6,92.4c-1.4-1.4-3.3-2.4-5.3-2.6c-0.5-0.1-0.8-0.5-0.8-1l0,0c0.1-0.5,0.5-0.9,1-0.8
			c2.5,0.3,4.8,1.4,6.5,3.2c0.2,0.3,0.2,0.5,0.2,0.8c0,0.5-0.5,0.8-1,0.7C642,92.6,641.8,92.5,641.6,92.4z"/>
		<path class="st21" d="M621.4,86.3c-2-0.4-4.1-0.2-5.9,0.7c-0.4,0.2-1,0-1.2-0.4c-0.2-0.4,0-1,0.4-1.2c2.2-1.1,4.8-1.4,7.2-0.8
			c0.3,0.1,0.5,0.3,0.6,0.5c0.2,0.5,0,1-0.5,1.2C621.8,86.3,621.6,86.4,621.4,86.3z"/>
		<path class="st15" d="M626.6,106.1L626.6,106.1c0.5,0,0.8-0.4,0.8-0.8c0-0.5-0.4-0.8-0.8-0.8c-2.5,0-3-1.4-3.1-2
			c1.8-2.2,2.7-4.8,2.8-7.6l0,0c0-0.4-0.4-0.7-0.8-0.7c-0.4,0-0.8,0.4-0.8,0.8c0,0-0.1,4.2-2.6,6.8c-0.1,0.1-0.2,0.3-0.2,0.5
			c0,1.9,1.4,3.4,3.2,3.7C625.5,106,626,106.1,626.6,106.1z"/>
		<path class="st21" d="M649.8,60.9c-14.2-8.8-29.5-0.4-35.8,9c-6.3,9.4-3.8,22.1-3.8,22.1s7-21.4,21.9-18.9s19.6,34.5,22.6,30.5
			C668.8,84.3,664,69.7,649.8,60.9z"/>
		<path class="st21" d="M665,76.2L665,76.2c6.2,1.1,12.1-3.1,13.2-9.3c1.1-6.2-3.1-12.1-9.3-13.2s-12.1,3.1-13.2,9.3
			C654.6,69.2,658.8,75.1,665,76.2z"/>
		<path class="st21" d="M637.2,105.8c-0.4,0-0.8,0-1.2-0.1c-3.9-0.7-6.5-4.3-5.8-8.2l0,0l0,0c0.7-3.9,4.3-6.5,8.2-5.8
			c3.9,0.7,6.5,4.3,5.8,8.2C643.6,103.3,640.6,105.8,637.2,105.8z M636.1,105.1c3.5,0.6,6.9-1.8,7.5-5.3s-1.8-6.9-5.3-7.5
			s-6.9,1.8-7.5,5.3C630.2,101.1,632.6,104.5,636.1,105.1z"/>
		<path class="st21" d="M623.6,96.6c-0.8,3.8-4.5,6.3-8.3,5.6c-3.8-0.8-6.3-4.5-5.6-8.3l0,0l0,0c0.7-3.8,4.4-6.4,8.2-5.7
			c3.9,0.7,6.5,4.3,5.8,8.2C623.7,96.4,623.7,96.5,623.6,96.6z M617.8,88.7c-0.3,0-0.7-0.1-1.1-0.2c-3.2,0-5.9,2.3-6.4,5.4l0,0
			c-0.3,1.7,0.1,3.5,1.1,4.9c1,1.4,2.5,2.4,4.2,2.7c3.5,0.6,6.9-1.8,7.5-5.3l0,0C623.7,92.7,621.3,89.3,617.8,88.7L617.8,88.7z"/>
		<path class="st21" d="M630.6,97.3c-3.9-3.3-7.4-1.2-7.4-1.2l0.3,0.5c0.2-0.1,3.2-1.9,6.8,1.2L630.6,97.3z"/>
		
			<rect x="649.3" y="94.5" transform="matrix(0.1047 -0.9945 0.9945 0.1047 482.0661 735.6981)" class="st21" width="0.6" height="11.3"/>
		<path class="st19" d="M648.9,107.8c5.8,4.5,12.5-3.1,9.7-6.4c-1.9-2.2-5-1.7-6.8-1.1c-0.9,0.3-1.6,0.8-2.1,1.6
			C647.3,106,648.9,107.8,648.9,107.8z"/>
		<path class="st15" d="M617.7,107.8c0,0,0,5.8,4,7.2s9.2-3.6,9.2-3.6s-4-3.3-5.4-3.5c-0.8-0.1-1.7,0.3-2.2,1
			c-0.2-0.8-0.7-1.5-1.4-1.9C620.9,106.5,617.7,107.8,617.7,107.8L617.7,107.8z"/>
		<path class="st12" d="M622.7,113c-3.2-0.6-4.9-5.2-4.9-5.2c4.3,1.4,8.8,2.6,13.3,3.6C631.1,111.4,625.9,113.6,622.7,113z"/>
		<path class="st22" d="M686.6,182.5c2.6,33.1-13.3,40.1-13.3,40.1c-5.6,32.5-14.4,36.8-14.4,36.8l-68.4-2.1c-6.1-9.7-4-28.1-4-28.1
			s-2.2-3.7-2.9,20.9c-1,33.4-5.7,37.6-5.7,37.6l-10.1,1.5c-4.9-11.8-10.6-37.3-7.5-63.7c3.4-29.2,14.9-67.7,23.3-73.9
			c8.4-6.2,33.8-13.8,33.8-13.8c-0.4-8,3.8-7.9,3.8-7.9c6,3.4,13.4,3.7,19.7,0.6c6.2,0.1,4,9.4,4,9.4
			C665.5,146.1,684.3,153.8,686.6,182.5z"/>
		<path class="st21" d="M564.9,194.6l10.3,60.7l0,0c0.1,0.4,0.5,0.7,0.9,0.6l43.6-7.4c0.4-0.1,0.7-0.5,0.6-0.9L610,186.9l0,0
			c-0.1-0.4-0.5-0.7-0.9-0.6l-43.6,7.4C565.1,193.8,564.8,194.1,564.9,194.6z"/>
		
			<rect x="578" y="187.9" transform="matrix(0.9859 -0.1673 0.1673 0.9859 -23.4908 100.9183)" class="st23" width="18.5" height="3.9"/>
		<path class="st23" d="M583.9,188.4c0.3,1.7,1.9,2.8,3.5,2.5c1.7-0.3,2.8-1.8,2.5-3.5s-1.8-2.8-3.5-2.5S583.6,186.7,583.9,188.4
			L583.9,188.4z"/>
		<path class="st14" d="M658.9,259c24.9,63,22,246.1,22,246.1l-26.8,1.6c0,0-30.5-184.7-35.1-184.1c-4.6,0.6-1.1,185.1-1.1,185.1
			l-29.3-1.5c0,0-16.9-137.8-14.3-188.4c2.6-50.6,16.1-60.7,16.1-60.7L658.9,259z"/>
		<path class="st16" d="M596.6,210.1c-7.4,1.7-19.8-0.6-25.9-2.3c-3.5-0.9-2.2-3.1-1.2-3.3c1.8,0,3.6,0.1,5.4,0.4
			c-1.9-0.5-3.7-1.2-5.4-2.1c-3.9-1.8-2.5-3.8-1-3.9c2.4,0.2,4.8,0.6,7.1,1.2c0,0-8.7-2.7-8.4-4.6c0.3-2.2,7.8-0.9,7.8-0.9
			s-12.7-3.2-11.9-5s5.8-1.5,8.3-0.7s11.1,2.2,11.1,2.2s-4.1-7.2-2.1-8.5s3.5,3.7,6.9,6.2c3.4,2.5,11,11.2,11,11.2L596.6,210.1z"/>
		<path class="st22" d="M657.2,177.8c-9.3,27.2-61,20.8-61,20.8l-3.7,13c40.4,38.6,80.8,10.8,80.8,10.8L657.2,177.8z"/>
		<path class="st21" d="M673.6,222.6c0.1-0.1,0.1-0.3,0-0.4l0,0c-0.1-0.1-0.3-0.1-0.4,0c-0.2,0.2-20.8,16.2-53.1,5.6
			c-0.2,0-0.3,0.1-0.4,0.2l0,0c0,0.2,0.1,0.4,0.2,0.4c7.1,2.3,14.5,3.6,22,3.6C661.6,232,673.4,222.8,673.6,222.6z"/>
		<path class="st21" d="M656.3,177.8c0-0.1-0.1-0.3-0.2-0.3c-0.2-0.1-0.4,0-0.4,0.2c-5.3,23.1-40.3,21.1-40.7,21.1l0,0
			c-0.2,0-0.3,0.1-0.3,0.3s0.1,0.3,0.3,0.3c0,0,0.9,0.1,2.3,0.1C625.4,199.5,651.7,197.9,656.3,177.8z"/>
	</g>
</g>
</svg>
