<?xml version="1.0" encoding="utf-8"?>
<!-- Generator: Adobe Illustrator 24.3.0, SVG Export Plug-In . SVG Version: 6.00 Build 0)  -->
<svg version="1.1" id="圖層_1" xmlns="http://www.w3.org/2000/svg" xmlns:xlink="http://www.w3.org/1999/xlink" x="0px" y="0px"
	 viewBox="0 0 1109.1 660.4" style="enable-background:new 0 0 1109.1 660.4;" xml:space="preserve">
<style type="text/css">
	.st0{fill:#FFDFD2;}
	.st1{fill:#CCBDAD;}
	.st2{fill:#B49989;}
	.st3{fill:#E5B0AE;}
	.st4{fill:#D7D1C4;}
	.st5{fill:#CA9D9C;}
	.st6{fill:#E2918F;}
	.st7{fill:#1D1C2E;}
	.st8{fill:#FFFFFF;}
	.st9{fill:#1A4172;}
	.st10{fill:#432D4E;}
	.st11{fill:#CD6868;}
	.st12{fill:#E5B39E;}
	.st13{fill:#0D0D25;}
	.st14{fill:#DC7167;}
	.st15{fill:#D48B57;}
	.st16{fill:#4C7C89;}
	.st17{fill:#E7ECFB;}
	.st18{fill:#0E0E35;}
	.st19{fill:#24153B;}
	.st20{fill:#121054;}
	.st21{fill:#F9F9FB;}
	.st22{fill:#84667F;}
	.st23{fill:#DEE5FC;}
	.st24{fill:#121212;}
	.st25{fill:#997686;}
</style>
<g id="圖層_5">
	<path class="st0" d="M155.7,559.6c-20.5-6.9-39.3-17.8-55.5-34.4c-19.2-19.6-36.5-41.2-49.9-65.1c-32.4-57.4-35.3-122.7-1.5-180.3
		C127.5,145.4,277.9,174,358,226.1c34.1,22.2,131.9,56.3,209.2-83.4C669-2.1,999.4,54.4,985.2,283.6
		c-13.9,82.1,15.5,90.5,56.4,123.7c29.3,23.7,47.9,57.6,34,95.1c-12.7,34.3-41.2,64.6-76.4,75.6c-28.1,8.8-58.3,6.1-87.7,3.5
		C766.5,568.7,617,552,471.3,556.9c-55.2,1.6-110.4,7.9-165.4,9.9C255.3,568.5,204.8,576.3,155.7,559.6z"/>
	<g>
		<path class="st1" d="M854.1,574.8c33.3-43,115.5-160.1,69.9-217.6c-17.4-21.9-56.2-13.2-63.2,72c-4.9,59.8-27.2,119.8-37.8,145.5
			L854.1,574.8z"/>
		<path class="st2" d="M838.4,574.8c21.6-36.7,36.6-75.5,45.9-104c12.6-38.4,18-67,18-67.3c0.2-1-0.5-2-1.5-2.2s-2,0.5-2.2,1.5
			c0,0.3-5.4,28.7-17.9,66.9c-9.5,28.8-24.7,68.2-46.7,105.1L838.4,574.8z"/>
		<path class="st3" d="M1074.4,328.4c-13.1-38.3-70.2-45.3-121,67.7c-35,77.8-93,147.9-120.5,178.7h66
			C974.6,522.9,1105.1,417.9,1074.4,328.4z"/>
		<path class="st1" d="M1021.6,377.3c-1.3-0.7-3-0.3-3.7,1c-0.2,0.4-21.2,36.5-56.8,82.6c-25.3,32.8-62.2,75.8-106.5,113.9h8.3
			c42.5-37.4,78-78.8,102.5-110.7c35.8-46.3,56.9-82.7,57.1-83.1C1023.3,379.7,1022.9,378.1,1021.6,377.3
			C1021.6,377.3,1021.6,377.3,1021.6,377.3z"/>
	</g>
	<path class="st1" d="M88.3,554.3c-0.2,7.7,1.3,15.3,4.4,22.4h73.2c18.7-17,24.1-44.9,11.8-67.5c-5.5-10.1-13.9-18-26.5-19.5
		c-39.7-4.7-11.8-34.7-26.4-58.7C108,403.3,78.8,414,68.6,392.2c-14.3-30.3-56.3-46.2-60.5-9.5s28.7,49.5,16.7,75.6
		s-4,53.2,20.9,58.2S89.1,523.6,88.3,554.3z"/>
	<path class="st4" d="M155.4,576.7L48.9,411.6c-0.8-1.4-2.5-1.9-3.9-1.1s-1.9,2.5-1.1,3.9c0.1,0.1,0.1,0.2,0.2,0.3l104.5,162
		L155.4,576.7z"/>
	<path class="st3" d="M105.5,457.8c25.2,18.8,44.7,31.2,27.4,65c-9.1,17.8-8.9,38.7-2,53.8h100.5c17.1-13.7,26.6-34.7,25.4-56.6
		c-0.8-14.2-5.9-27.5-19.2-35.9c-41.8-26.4,5.3-45.1,1.8-79.6c-4-39.8-42.2-43.4-42.1-73.2c0.2-41.5-38.2-81.6-62.5-42.9
		s5.6,70.6-21.7,93.4S80.3,439.1,105.5,457.8z"/>
	<path class="st4" d="M187.9,576.7h7.1l-30-234.2c-0.5-1.9-2.4-3.1-4.3-2.6c-1.6,0.4-2.7,1.8-2.7,3.5L187.9,576.7z"/>
	<path class="st1" d="M373,563.8c-64.3-157.4-84.2-268.8-57.5-323.1c1.2-2.1,0.4-4.8-1.7-5.9c-2.1-1.2-4.8-0.4-5.9,1.7
		c-0.1,0.1-0.1,0.2-0.2,0.3c-16.1,32.7-16.6,83.8-1.5,151.9c11,49.7,30.3,108.5,57.4,175.1H373z"/>
	<path class="st3" d="M297.8,326.9c0,0-34.7,11.6-52.7-50.1C245.1,276.8,303.2,274,297.8,326.9z"/>
	<path class="st3" d="M305.5,359.2c0,0-13.5-34,47.1-55.4C352.6,303.8,358.6,361.7,305.5,359.2z"/>
	<path class="st3" d="M303.2,264.8c0,0-24.1-27.5,26-68C329.2,196.9,354.1,249.4,303.2,264.8z"/>
	<path class="st3" d="M318.9,424.7c0,0-28.7,22.7-66.6-29.4C252.3,395.4,306.1,373.1,318.9,424.7z"/>
	<path class="st3" d="M331.6,456.5c0,0-19.2-31.1,36.8-62.7C368.5,393.7,384.4,449.7,331.6,456.5z"/>
	<path class="st3" d="M344.8,501.7c0,0-28.3,23.2-67.1-28.1C277.7,473.6,331,450.3,344.8,501.7z"/>
	<path class="st5" d="M1010.5,581.3c10.7,1,21.4,2,32.2,2.8c6.6,0.5,13.4,1.1,19,4.8s9.5,11.5,7,18c-2.2,5.8-8.3,8.4-13.9,10.2
		c-30.1,9.6-60.6,32.4-92,32.2c-80.1-0.4-160-6.7-240.1-9.4c-74.6-2.5-148.5,4.4-222.9,4.4c-57.2,0-116.4-2.8-174.3-3.9
		c-66.2-1.2-128.9,5.9-195,1.8c-18.8-1.2-40.9-25.2-53.8-40c-3.2-3.7-5.9-8.2-10-10.8c-4.8-3.1-11.8-3.9-13.9-9.6
		c-6.3-17.5,68.2-17.8,78.4-18.5c34.8-2.5,69.7-4.2,104.5-5.6c87.5-3.6,175.1-5,262.7-5c95.9,0,191.8,1.6,287.6,6
		C861.9,562.2,935.3,574,1010.5,581.3z"/>
	<g>
		<path class="st6" d="M286.2,328.8c0,0,5,10.7,5.9,14.9s5,7.7,2.9,9s-7-5.5-7-5.5s-2.2,8.6-2.5,11.3s-2,7.5-4.1,7.5
			s0.3-13.1,0.3-13.1s-3,10.8-4.9,11.2s-0.1-14-0.1-14s-2.6,11.7-3.6,12.5s-2-0.5-2.1-4.9c0-3,0.4-6,1-8.9c0,0-2.5,8.1-3.1,9
			s-2.1,1.6-1.6-4.9s4.1-20.3,8.7-26.5L286.2,328.8z"/>
		<path class="st6" d="M341.3,549.8c0,0-0.9,25.5-1.1,25.8s1.7,3.6,1.7,3.6l8,1.8l7.5-3c0,0,0.5-23.7,1.4-27.4
			S341.3,549.8,341.3,549.8z"/>
		<path class="st7" d="M357.4,578.1c0,0-9.4,2.8-17-2.9c0,0-31.4,10-30.8,18.9c0,0-1.4,2.5,11.9,2.6s34.1,0.5,34.7,0.2
			S359.3,598.1,357.4,578.1z"/>
		<path class="st6" d="M451,549.8c0,0,0.9,25.5,1.1,25.8s-1.7,3.6-1.7,3.6l-8,1.8l-7.5-3c0,0-0.5-23.7-1.4-27.4S451,549.8,451,549.8
			z"/>
		<path class="st7" d="M435,578.1c0,0,9.4,2.8,17-2.9c0,0,31.3,10,30.8,18.9c0,0,1.4,2.5-11.9,2.6s-34.1,0.5-34.7,0.2
			S433.1,598.1,435,578.1z"/>
		<polygon class="st8" points="377,147.7 343.2,160.8 338.2,182.6 358.1,310.4 422.4,301.4 396.5,174.2 		"/>
		<path class="st9" d="M436.7,290.3c0,0,14.5,45.1,21.5,266.5l-31.3,6.7c0,0-36.7-194.7-39.4-197.1s-22.3,197.1-22.3,197.1h-33.9
			l-1.7-255.5L436.7,290.3z"/>
		<path class="st10" d="M377,147.7c0,0,30.2,96.9,32.3,178.7l40.2-1.8c0,0-17.6-84-23-105.2l50.7,50.5l6.6-27.3
			C483.9,242.5,436.4,155,377,147.7z"/>
		<path class="st10" d="M343.2,160.8c0,0,20.3,95.3,20.9,113.7s5.4,55.5,5.4,55.5l-42.2,1.2l-2.1-72.2c0,0-13.9,27.1-17.2,38.8
			c-3.3,11.7-9.6,44.3-9.6,44.3l-23.8-0.7c0,0,1.7-73.7,16.6-110.9C301.9,203.9,317.4,179,343.2,160.8z"/>
		<path class="st11" d="M370.6,105.4c0,0,1-3.6,2.9-2.8c4.9,1.8,2.2,6.9-0.1,8.6L370.6,105.4z"/>
		<path class="st12" d="M368.1,94.3L368.1,94.3c-0.1-0.3-0.2-0.6-0.3-0.9c-4.2-13.2-18.3-20.5-31.5-16.3
			c-13.2,4.2-20.5,18.3-16.3,31.5c1.1,3.3,2.8,6.4,5.1,9.1c4,4.9,7.5,9.1,10.8,12.4c5.5,5.5,9,12.7,10.1,20.4l0.8,6
			c17.2,3.2,21.6-6.2,21.6-6.2l-3.1-10.6c-0.4-1.4,0.3-2.9,1.7-3.4l0,0C384.8,129.3,370.7,102.5,368.1,94.3z"/>
		<path class="st13" d="M347.4,114.7c-0.4-1.2-1.7-1.9-2.9-1.5c-1.2,0.4-1.9,1.7-1.5,2.9c0.4,1.2,1.7,1.9,2.9,1.5
			C347.1,117.3,347.8,116,347.4,114.7C347.4,114.7,347.4,114.7,347.4,114.7z"/>
		<path class="st13" d="M365.9,104.4c-0.4-1.2-1.7-1.9-2.9-1.5c-1.2,0.4-1.9,1.7-1.5,2.9c0.4,1.2,1.7,1.9,2.9,1.5
			C365.6,107,366.3,105.7,365.9,104.4C365.9,104.5,365.9,104.5,365.9,104.4z"/>
		<path class="st13" d="M338.3,113.7c-0.2,0.1-0.5,0-0.7,0c-0.7-0.2-1.2-0.9-1-1.6c0,0,0,0,0,0c0.5-2.2,3-6.2,8.8-5.3
			c0.7,0.2,1.2,0.9,1,1.6c-0.2,0.7-0.8,1.1-1.4,1.1c-4.7-0.7-5.7,3-5.7,3.2C339.2,113.2,338.8,113.6,338.3,113.7z"/>
		<path class="st13" d="M358.1,103.6c-0.2,0.1-0.5,0.1-0.7,0c-0.7-0.2-1.2-0.9-1-1.6c0,0,0,0,0,0c0.5-2.2,3-6.2,8.8-5.3
			c0.8,0.1,1.3,0.7,1.3,1.5c-0.1,0.8-0.7,1.3-1.5,1.3c-0.1,0-0.1,0-0.2,0c-4.7-0.7-5.7,3-5.7,3.2
			C358.9,103.1,358.6,103.5,358.1,103.6z"/>
		<polygon class="st14" points="318.4,110.9 330,125 334,122.8 330,101.1 		"/>
		<path class="st6" d="M334.5,122c-0.6-0.6-1.5-1-2.4-1.1c-1.9-0.1-5,0.1-6.4,2.7c-2,3.9,6.4,9.8,11,4.1
			C336.8,127.7,337.9,125.5,334.5,122z"/>
		<path class="st11" d="M361.4,119.1c-1.1,1-2.6,1.5-4.1,1.2c-0.2,0-0.3-0.3-0.3-0.5c0,0,0,0,0,0c0.1-0.2,0.3-0.3,0.5-0.3
			c0,0,0,0,0,0c1.7,0.3,3.4-0.5,4.1-2c0.2-0.3,0.3-0.6,0.3-0.9c-0.1-0.3-0.5-0.5-1.1-0.9c-2.5-1.3-4.4-3.4-5.5-6
			c-0.1-0.2,0-0.4,0.2-0.5c0.2-0.1,0.4,0,0.5,0.2c0,0,0,0,0,0c1,2.4,2.8,4.4,5.1,5.7c0.7,0.4,1.3,0.7,1.5,1.3
			c0.1,0.5-0.1,1.1-0.4,1.5C362.1,118.4,361.8,118.8,361.4,119.1z"/>
		<path class="st8" d="M353.7,126c0,0,9.4-1.7,14.3-6.3c0,0,0.8,7.4-4.3,9.7S353.7,126,353.7,126z"/>
		<path class="st14" d="M361.2,86.3c0,0,4.2,1.3,9.6,15.6c0,0-4-16.5-6.3-17.8C362.2,82.9,361.2,86.3,361.2,86.3z"/>
		<path class="st14" d="M318,78.9c3.7-6.5,12.7-8,17.5-13.8c-1,4.1-2.8,8.1-5.2,11.6l24.1-13.1c-2.1,3.3-4.4,6.3-7.1,9.1
			c6.8-0.9,13.5-2.4,20.1-4.5c0.9,0.9,0.7,2.3,0.5,3.6c-1.1,6.8-2.7,14.3-8.4,18.2c-1.8,1.2-3.8,2-5.8,2.5
			c-8.1,2.3-17.6,2.2-23.4,8.4c-2.7,2.8-4.9,11.2-9.7,11.1C316.4,111.8,306.6,99.1,318,78.9z"/>
		<polygon class="st14" points="368.1,157.8 367.9,166.7 363.2,168.7 356.7,164 361,157.6 		"/>
		<polygon class="st8" points="345.3,159.7 346.4,153.3 360.7,156.1 366.9,145.3 370,146.2 371.2,158.9 361.6,158.4 356.6,166 		"/>
		<polygon class="st14" points="367.9,166.7 399,263.6 389.8,291.4 368.7,269.9 363,167.2 		"/>
		<path class="st6" d="M591.3,357.9c0,0-5.5,9.5-6.7,13.3s-5.3,6.7-3.4,8.1s7-4.5,7-4.5s1.4,8.1,1.4,10.7s1.3,7.1,3.1,7.2
			s0.8-12.2,0.8-12.2s1.9,10.3,3.6,10.8s1.2-12.9,1.2-12.9s1.5,11,2.3,11.8s1.9-0.3,2.3-4.4c0.2-2.8,0.2-5.5-0.2-8.3
			c0,0,1.6,7.7,2.1,8.5s1.8,1.7,1.8-4.4s-2.1-19.1-5.9-25.2L591.3,357.9z"/>
		<path class="st12" d="M528.7,511c0,0-5,64.7,1.8,71.6s17,13.3,17.9,17.4s-29.8-0.5-32.6-4.6s-2.3-11-5-30.3s-7-54.1-7-54.1H528.7z
			"/>
		<path class="st13" d="M548.4,600c-0.6-2.8-5.5-6.7-10.7-11c-1.2,8.8-18.5-0.2-24.5-3.6c0.6,5,1.2,7.9,2.6,10.1
			C518.5,599.6,549.3,604.2,548.4,600z"/>
		<path class="st12" d="M572.5,511c0,0-5,64.7,1.8,71.6s17,13.3,17.9,17.4s-29.8-0.5-32.6-4.6s-2.3-11-5-30.3s-6.9-54.1-6.9-54.1
			H572.5z"/>
		<path class="st13" d="M592.2,600c-0.6-2.8-5.5-6.7-10.7-11c-1.2,8.8-18.5-0.2-24.5-3.6c0.6,5,1.2,7.9,2.6,10.1
			C562.4,599.6,593.1,604.2,592.2,600z"/>
		<path class="st9" d="M516.5,126.9c0,0,22.8-10,34.2,13s17,49.8,10.3,61.2s-28.8,8-28.8,8s-26.6,5.4-37.1-6
			S489.5,133.2,516.5,126.9z"/>
		<polygon class="st10" points="573.3,373.1 581.9,531.3 491.7,534.2 488.3,373.1 496.2,342.7 541.7,333.4 		"/>
		<path class="st15" d="M485.4,216.7l32.3-13.3l20-0.2c0,0,29.3,13.5,32.2,16.7s32.1,130.9,37,137.1c0,0-6.4,7.6-20.8,7.6
			c0,0-9.8-30.4-13.3-50l7.2,70.2c0,0-44.1,12.1-68.9,2.9l-9.8-35.6l-3.3,35.3c-4.2,1.1-8.5,1.4-12.7,1L485.4,216.7z"/>
		
			<rect x="522.1" y="256.8" transform="matrix(0.9662 -0.2576 0.2576 0.9662 -56.2045 150.8909)" class="st16" width="51.2" height="66.2"/>
		<path class="st17" d="M518.1,268.8l-4.7,1.2c-0.4,0.1-0.7-0.1-0.8-0.5c0,0,0,0,0,0c-0.1-0.4,0.1-0.7,0.5-0.8c0,0,0,0,0,0l4.7-1.3
			c0.4-0.1,0.7,0.1,0.8,0.5c0,0,0,0,0,0C518.7,268.3,518.5,268.6,518.1,268.8C518.1,268.8,518.1,268.8,518.1,268.8z"/>
		<path class="st17" d="M520.4,277.6l-4.8,1.3c-0.4,0.1-0.7-0.1-0.9-0.4c-0.1-0.4,0.1-0.7,0.4-0.9c0,0,0,0,0.1,0l4.7-1.3
			c0.4-0.1,0.7,0.2,0.8,0.5C520.9,277.2,520.7,277.5,520.4,277.6L520.4,277.6z"/>
		<path class="st17" d="M522.5,285.3l-4.7,1.3c-0.4,0.1-0.7-0.1-0.8-0.5c-0.1-0.4,0.1-0.7,0.5-0.8l4.7-1.3c0.4-0.1,0.7,0.2,0.8,0.5
			C523,284.9,522.8,285.2,522.5,285.3L522.5,285.3z"/>
		<path class="st17" d="M524.6,293.3l-4.7,1.3c-0.4,0.1-0.7-0.1-0.8-0.5c0,0,0,0,0,0c-0.1-0.4,0.1-0.7,0.5-0.8c0,0,0,0,0,0l4.7-1.3
			c0.4-0.1,0.7,0.1,0.8,0.5C525.2,292.9,525,293.2,524.6,293.3L524.6,293.3z"/>
		<path class="st17" d="M526.8,301.4l-4.7,1.3c-0.4,0.1-0.7-0.1-0.8-0.5c0,0,0,0,0,0c-0.1-0.4,0.1-0.7,0.5-0.8l4.7-1.3
			c0.4-0.1,0.7,0.2,0.8,0.5C527.3,300.9,527.1,301.3,526.8,301.4L526.8,301.4z"/>
		<path class="st17" d="M528.9,309.4l-4.7,1.3c-0.4,0.1-0.7-0.1-0.8-0.5c0,0,0,0,0,0c-0.1-0.3,0.1-0.7,0.4-0.8c0,0,0,0,0,0l4.7-1.3
			c0.4-0.1,0.7,0.1,0.8,0.5C529.5,309,529.3,309.3,528.9,309.4L528.9,309.4z"/>
		<path class="st17" d="M531.7,319.9l-4.7,1.3c-0.4,0.1-0.7-0.1-0.9-0.4c-0.1-0.4,0.1-0.7,0.4-0.9c0,0,0.1,0,0.1,0l4.7-1.3
			c0.4-0.1,0.7,0.1,0.8,0.5C532.3,319.4,532,319.8,531.7,319.9L531.7,319.9z"/>
		<path class="st12" d="M544.8,290c0,0,7-9.8,10.3-12.8s4.3-8.3,6.6-7.1s-1.3,9-1.3,9s8.8-2.3,11.4-3.5s7.7-2,8.7-0.1
			s-11.8,6.4-11.8,6.4s6.4-1.9,7.6-0.4s-7.6,6.2-7.6,6.2s6.6-2.5,7.7-1.9s0.5,2-3.3,4.3s-3.2,2.5-3.2,2.5s3.7-2,4.8-1.9
			s1.5,2.3-4.6,5.1s-13.5,5.6-21.3,4.7L544.8,290z"/>
		<path class="st15" d="M485.4,216.7c-16.3,12.1-50.3,79.3-10.5,99.9s78.4-11.4,78.4-11.4l-9.8-18.3c0,0-42.8,12.4-49.3-1
			s-0.3-26.5-0.3-26.5S486.4,220.2,485.4,216.7L485.4,216.7z"/>
		<path class="st11" d="M548.1,164.5c0,0,1.8-3,3.4-1.9c4.1,2.9,0,7.1-2.6,8.1L548.1,164.5z"/>
		<path class="st12" d="M521.7,126.9c-12.1,1.4-21.3,11.6-21.4,23.7c0,3.8,0.8,7.6,2.6,11c3.7,8.2,6.8,14.9,10.4,19.6
			c3.7,4.8,5.5,10.8,5,16.8l-0.6,6.1c14.3,6.4,20.1-0.9,20.1-0.9l-0.7-14l0,0c15.1-2.5,11.8-30.4,11.4-38.6l0,0c0-0.3,0-0.6,0-0.9
			c-0.6-13.3-11.9-23.5-25.1-22.9C522.8,126.8,522.2,126.8,521.7,126.9z"/>
		<path class="st18" d="M542.3,161.9c0.1-1.2-0.8-2.1-2-2.2c-1.2-0.1-2.1,0.8-2.2,2c-0.1,1.2,0.8,2.1,2,2.2
			C541.3,164,542.3,163.1,542.3,161.9z"/>
		<path class="st18" d="M522.9,165.5c0.1-1.2-0.8-2.1-2-2.2c-1.2-0.1-2.1,0.8-2.2,2s0.8,2.1,2,2.2
			C521.8,167.6,522.8,166.7,522.9,165.5L522.9,165.5z"/>
		<path class="st11" d="M540.2,177.3c0,0-1.9-1.1-3-0.7c-0.7,0.4-1.2,1-1.5,1.8c-0.5-0.7-1.2-1.1-2.1-1.1c-1.7,0.4-3.3,0.9-4.8,1.5
			c0,0,3.9,5.2,7.7,3.8c2.1-0.7,3.6-2.7,3.6-5L540.2,177.3z"/>
		<path class="st19" d="M536.8,180c-4.4,1.4-9-1.4-9.1-1.5c-0.1-0.1-0.2-0.3-0.1-0.4c0,0,0,0,0,0c0.1-0.1,0.2-0.2,0.4-0.1
			c0,0,0,0,0,0c0.3,0.2,7.6,4.6,12.1-1.1c0.1-0.1,0.3-0.1,0.4,0c0.1,0.1,0.2,0.3,0,0.4C539.6,178.6,538.3,179.5,536.8,180z"/>
		<path class="st18" d="M517.3,162.4c-0.3,0-0.5-0.1-0.7-0.3c-0.3-0.4-0.3-0.9,0.1-1.2c0,0,0,0,0,0c1.9-1.4,4.3-2.1,6.7-2
			c0.5,0,0.9,0.4,0.8,0.9c0,0.5-0.4,0.8-0.9,0.8c-2-0.1-3.9,0.5-5.5,1.6C517.7,162.3,517.5,162.4,517.3,162.4z"/>
		<path class="st18" d="M538.5,157.8c-0.3,0-0.5-0.2-0.6-0.4c-0.2-0.4-0.1-0.9,0.3-1.2c0,0,0,0,0,0c2.2-1.1,4.6-1.4,7-0.8
			c0.5,0.1,0.7,0.6,0.6,1.1c-0.1,0.4-0.5,0.7-1,0.6c-1.9-0.4-3.9-0.2-5.7,0.6C539,157.8,538.8,157.8,538.5,157.8z"/>
		<path class="st11" d="M534.2,172.6c1.8-0.2,3.1-1.7,3.2-3.5c0-0.2-0.1-0.4-0.2-0.5c-2.3-2.6-2.3-6.6-2.3-6.6
			c0-0.4-0.4-0.7-0.8-0.6c-0.3,0-0.6,0.3-0.6,0.6c0,2.7,0.9,5.3,2.5,7.4c-0.1,0.6-0.7,1.9-3,1.9c-0.4,0-0.7,0.4-0.6,0.8
			c0,0.3,0.3,0.6,0.6,0.6C533.4,172.8,533.8,172.7,534.2,172.6z"/>
		<path class="st9" d="M522.3,141.5c0,0,9.4,7.1,17.6,13.5s6,32.2,6,32.2l8.8-22c0,0-3.1-44.5-33.3-39.8s-22.1,36.7-17.1,43
			s5.2,1.5,5.2,1.5S521.4,147.4,522.3,141.5z"/>
		<path class="st6" d="M510.5,168c-0.4-0.8-1.1-1.3-2-1.6c-1.7-0.6-4.7-1.2-6.6,0.9c-2.8,3.1,3.5,10.6,9.2,6.5
			C511.1,173.8,512.7,172,510.5,168z"/>
		<path class="st18" d="M511.4,293.5c-6.4,0-11.5-1.5-15-4.6c-3.2-2.9-5.1-7-5.1-11.3c0-0.2,0.1-0.3,0.3-0.3c0,0,0,0,0,0
			c0.2,0,0.3,0.2,0.3,0.3c0,4.1,1.8,8.1,4.9,10.8c5.1,4.4,13.6,5.5,25.2,3.3c0.2-0.1,0.3,0,0.4,0.2c0.1,0.2,0,0.3-0.2,0.4
			c0,0-0.1,0-0.1,0C518.6,293,515,293.4,511.4,293.5z"/>
		<path class="st18" d="M505.7,323.5c-6.8,0-13.7-0.8-20.3-2.3c-0.2,0-0.3-0.2-0.2-0.4c0,0,0,0,0,0c0-0.2,0.2-0.3,0.4-0.2
			c0,0,0,0,0,0c0.2,0.1,25.7,6.3,43.2-2.2c0.2-0.1,0.3,0,0.4,0.1c0,0,0,0,0,0c0.1,0.2,0,0.3-0.1,0.4
			C521.7,322.4,513.2,323.5,505.7,323.5z"/>
		<path class="st20" d="M641.4,207.1c-0.9,6.2,5.6,12.8,2.5,18.2c-0.7,1.2-1.8,2.2-2.4,3.4c-1.3,2.8,0.3,6.3,2.9,7.9s6,1.6,9,0.9
			s5.9-1.9,8.8-2.7c6.7-1.7,13.7-0.9,20.6-1s14.2-1.2,21,0.5c7.8,2,14.2,7.4,21.2,11.6c7.1,4.3,14.8,7.3,22.9,8.9
			c4.2,0.9,8.7,1.3,12.8,0c8.2-2.5,12.8-11.8,11.2-20c-1-4.7-3.6-8.9-7.3-11.9c-3.3-2.7-7.8-4.2-9.9-8.1c-3-5.4,0.7-12.1,0.2-18.3
			c-0.4-5.2-3.8-10.1-8.1-12.9c-4-2.6-9.3-3.9-11.9-8.3c-2.8-4.8-0.6-10.3-0.3-15.4c0.4-7.3-3.2-14.4-8.6-19.3
			c-1.6-1.5-3.4-2.8-5.3-3.9c-12.8-7.5-31.2-7.2-38.8,7.5c-2.3,4.5-3.2,9.9-6.6,13.7c-3.7,4.1-9.9,5.8-12.4,10.8
			c-3.2,6.2,1.2,14.2-1.9,20.4c-2,4.1-6.5,6.1-10.5,8.2S642.1,202.6,641.4,207.1z"/>
		<path class="st12" d="M677.5,544.8c0,0,4.3,35.7,1.1,40.1c-1.8,2.5-43.7,13-45.7,7.4s29.3-17.7,30.3-28.5c0.5-6.9,0-13.8-1.6-20.5
			L677.5,544.8z"/>
		<path class="st18" d="M679.7,570.7c-20.2,14-28,11.2-30.9,8c-8.3,5.6-16.9,10.5-15.8,13.5c2,5.5,43.8-4.9,45.6-7.4
			C679.8,583.2,680,577.4,679.7,570.7z"/>
		<path class="st12" d="M739.2,545.1c0,0,4.3,35.7,1.1,40.1c-1.8,2.5-43.7,12.9-45.6,7.4s29.3-17.7,30.3-28.5
			c0.5-6.9,0-13.8-1.6-20.5L739.2,545.1z"/>
		<path class="st18" d="M741.4,571.1c-20.2,14-28,11.3-30.9,8c-8.3,5.6-16.9,10.5-15.8,13.5c2,5.5,43.8-4.9,45.6-7.4
			C741.5,583.6,741.7,577.8,741.4,571.1z"/>
		<path class="st11" d="M680.8,164.4c0,0-1.5-3-3.1-2.1c-4.1,2.4-0.6,6.7,1.8,7.9L680.8,164.4z"/>
		<path class="st12" d="M708.5,133.8c12.4,2.5,20.4,14.5,17.9,26.8c-0.5,2.6-1.5,5.1-2.9,7.4c-4.1,7.5-7.5,13.5-11.3,17.7
			c-3.9,4.2-6,9.8-6,15.5l0.1,5.8c-14,4.9-18.9-2.4-18.9-2.4l1.7-13.2l0,0c-14-3.5-8.7-29.6-7.7-37.3l0,0l0.1-0.9
			c1.6-12.5,13.1-21.3,25.6-19.7C707.5,133.6,708,133.7,708.5,133.8z"/>
		<path class="st20" d="M707.1,157c2.3,3.2,4.5,6.6,6.4,10.1c2.1,3.6,4.3,7.5,4.3,11.7c4-2.3,6.9-6.2,9.4-10.1
			c1.2-1.8,2.2-3.7,2.9-5.8c0.8-2.9,0.5-6.1,0.1-9.1c-0.5-3.9-1-8-3.2-11.3c-1.5-2.1-3.5-3.9-5.8-5.2c-5.1-3.4-11.1-5.2-17.2-5.2
			c-6.2,0-12.1,2.5-16.4,6.8c-5.4,5.7-7,13.9-8.3,21.6c1.2-3.1,3.7-5.6,6.1-7.9c1.5-1.6,3.2-3,5.2-4c3.4-1.6,4.2-1,10.1-4
			C701.5,149.7,704.1,153,707.1,157z"/>
		<path class="st6" d="M715.8,173.5c0.5-0.7,1.2-1.2,2-1.4c1.7-0.4,4.5-0.8,6.1,1.4c2.4,3.1-4.1,9.8-9.2,5.4
			C714.7,178.9,713.3,177.1,715.8,173.5z"/>
		<path class="st18" d="M686.5,165.1c0-1.1,1-2,2.1-1.9s2,1,1.9,2.1s-1,2-2.1,1.9S686.5,166.3,686.5,165.1z"/>
		<path class="st18" d="M704.6,169.7c0-1.1,0.9-2,2.1-1.9s2,0.9,1.9,2.1s-0.9,2-2.1,1.9c0,0,0,0,0,0
			C705.4,171.7,704.6,170.8,704.6,169.7z"/>
		<path class="st20" d="M710,166.9c0.2,0,0.5,0,0.7-0.2c0.4-0.3,0.4-0.8,0.1-1.2c-1.5-1.7-3.5-2.9-5.8-3.2c-0.4-0.1-0.9,0.2-1,0.6
			c0,0,0,0,0,0.1c-0.1,0.5,0.2,0.9,0.7,1c0,0,0,0,0,0c1.8,0.3,3.5,1.3,4.8,2.6C709.6,166.8,709.8,166.9,710,166.9z"/>
		<path class="st20" d="M691.8,159.8c0.4-0.2,0.7-0.6,0.5-1.1c-0.1-0.2-0.3-0.4-0.5-0.5c-2.2-0.6-4.5-0.5-6.6,0.4
			c-0.4,0.2-0.6,0.7-0.4,1.1c0.2,0.4,0.6,0.6,1,0.4c1.7-0.7,3.6-0.8,5.4-0.3C691.4,159.9,691.6,159.8,691.8,159.8z"/>
		<path class="st11" d="M693,176c-1.6-0.4-2.8-1.8-2.8-3.5c0-0.2,0.1-0.3,0.2-0.5c1.5-1.7,2.5-3.8,2.7-6.1c0-0.4,0.3-0.7,0.7-0.7
			c0,0,0,0,0,0c0.4,0,0.7,0.3,0.7,0.7c0,0,0,0,0,0c-0.2,2.5-1.2,4.9-2.9,6.8c0.1,0.6,0.5,1.9,2.7,2c0.4,0,0.7,0.4,0.6,0.8
			c0,0.4-0.4,0.7-0.7,0.6c0,0,0,0,0,0C693.8,176.2,693.4,176.1,693,176z"/>
		<path class="st14" d="M686.6,179.2c0,0,2.8-1.7,3.8-1.3c0.7,0.4,1.2,1,1.4,1.7c0.5-0.7,1.2-1,2-1c1.2,0.1,3.5,3.8,3.5,3.8
			s-4.2,5-7.8,3.9s-2.8-6.8-2.8-6.8L686.6,179.2z"/>
		<path class="st21" d="M686.6,179.2l10.7,3.2c0,0-4.3,2.3-7.2,1.6S686.6,179.2,686.6,179.2z"/>
		<path class="st8" d="M710.4,207.4c0,0,1.8-8.9-4.1-8.9c-5.7,2.9-12.6,2.7-18.1-0.6c0,0-4.3-0.1-3.9,7.5c0,0-24.1,7.2-32.2,13.1
			s-22.9,42.8-22.5,70.8c0.3,23.5,0.3,40.9,4.9,52l9.7-1.1c0,0,5.9-9.4,7.6-24.1c0.9-8.1,3.1-23.8,3.1-23.8s-2,17.5,3.8,26.7l65.1,2
			c0,0,8.3-4.1,13.7-35c0,0,15.1-6.7,12.6-38.1C747.9,220.7,730,213.3,710.4,207.4z"/>
		<path class="st15" d="M658.7,318.9c0,0-12.8,9.6-15.3,57.7s13.6,179,13.6,179l27.8,1.5c0,0-3.3-175.3,1.1-175.8s33.3,175,33.3,175
			l25.5-1.5c0,0,2.8-174-20.9-233.8L658.7,318.9z"/>
		
			<rect x="633.1" y="244.3" transform="matrix(9.931975e-02 -0.9951 0.9951 9.931975e-02 331.3174 903.3942)" class="st18" width="63.1" height="48.8"/>
		<path class="st17" d="M645.4,239.8l-4.6-0.5c-0.4-0.1-0.6-0.4-0.5-0.8c0.1-0.3,0.3-0.5,0.7-0.5l4.6,0.5c0.4,0,0.6,0.3,0.6,0.7
			C646.1,239.6,645.8,239.9,645.4,239.8C645.5,239.8,645.4,239.8,645.4,239.8z"/>
		<path class="st17" d="M644.5,248.6l-4.6-0.5c-0.4,0-0.6-0.3-0.6-0.7c0,0,0,0,0,0c0-0.4,0.4-0.6,0.7-0.6l4.6,0.5
			c0.4,0,0.6,0.3,0.6,0.7c0,0,0,0,0,0C645.2,248.3,644.9,248.6,644.5,248.6z"/>
		<path class="st17" d="M643.8,256.1l-4.6-0.5c-0.4,0-0.6-0.3-0.6-0.7c0,0,0,0,0,0c0-0.4,0.4-0.6,0.7-0.6l4.6,0.5
			c0.4,0,0.6,0.3,0.6,0.7c0,0,0,0,0,0C644.4,255.8,644.1,256.1,643.8,256.1z"/>
		<path class="st17" d="M643,264l-4.6-0.5c-0.4-0.1-0.6-0.4-0.5-0.8c0.1-0.3,0.3-0.5,0.7-0.5l4.6,0.5c0.4,0,0.6,0.4,0.6,0.7
			C643.7,263.8,643.3,264,643,264C643,264,643,264,643,264z"/>
		<path class="st17" d="M642.2,271.9l-4.7-0.5c-0.4-0.1-0.6-0.4-0.5-0.8c0.1-0.3,0.3-0.5,0.7-0.5l4.6,0.5c0.4,0,0.6,0.3,0.6,0.7
			c0,0,0,0,0,0C642.9,271.6,642.6,271.9,642.2,271.9C642.2,271.9,642.2,271.9,642.2,271.9z"/>
		<path class="st17" d="M641.4,279.8l-4.7-0.5c-0.4,0-0.6-0.4-0.6-0.7c0-0.4,0.4-0.6,0.7-0.6l4.7,0.5c0.4,0,0.6,0.4,0.6,0.7
			C642.1,279.5,641.8,279.8,641.4,279.8z"/>
		<path class="st17" d="M640.4,290l-4.7-0.5c-0.4,0-0.6-0.4-0.6-0.7c0-0.4,0.4-0.6,0.7-0.6l4.7,0.5c0.4,0,0.6,0.4,0.6,0.7
			C641.1,289.8,640.7,290.1,640.4,290C640.4,290.1,640.4,290.1,640.4,290z"/>
		
			<rect x="664.2" y="238" transform="matrix(9.931975e-02 -0.9951 0.9951 9.931975e-02 353.8167 887.0217)" class="st8" width="5.4" height="20.1"/>
		<path class="st12" d="M666.3,265.6c0,0-7.2-8.3-10.5-10.7s-4.6-7.2-6.6-5.9s2,8,2,8s-8.2-1.3-10.6-2.1s-7.2-1.1-7.9,0.6
			s11.3,4.7,11.3,4.7s-7.1-1.3-7.5,0.9c-0.3,1.8,8,4.4,8,4.4c-2.2-0.5-4.5-0.9-6.7-1.2c-1.4,0.1-2.8,2,0.9,3.7
			c1.6,0.8,3.4,1.5,5.1,2c-1.7-0.3-3.4-0.4-5.1-0.3c-1,0.2-2.2,2.2,1.1,3.1c5.8,1.6,17.6,3.8,24.6,2.2L666.3,265.6z"/>
		<path class="st8" d="M737.4,285.9c0,0-38.3,26.4-76.8-10.2l3.5-12.4c0,0,49.1,6.1,58-19.8L737.4,285.9z"/>
		<path class="st18" d="M707.5,295c-7.1,0-14.1-1.2-20.9-3.5c-0.2,0-0.3-0.2-0.2-0.4c0,0,0,0,0,0c0.1-0.2,0.2-0.3,0.4-0.2
			c0,0,0,0,0,0c30.7,10.1,50.2-5.1,50.4-5.3c0.1-0.1,0.3-0.1,0.5,0c0.1,0.1,0.1,0.3,0,0.5l0,0C737.5,286.3,726.3,295,707.5,295z"/>
		<path class="st18" d="M684.2,264.1c-1.4,0-2.2,0-2.2,0c-0.2,0-0.3-0.2-0.3-0.4c0-0.2,0.2-0.3,0.3-0.3l0,0c0.3,0,33.6,1.9,38.6-20
			c0-0.2,0.2-0.3,0.4-0.2s0.3,0.2,0.2,0.4C716.9,262.6,691.9,264.1,684.2,264.1z"/>
		<path class="st12" d="M644.2,340.1c0,0,7.7,7.8,9.9,11.2s6.8,5.1,5.4,7s-7.9-2.5-7.9-2.5s0.8,8.2,1.4,10.7s0.6,7.2-1.2,7.8
			s-3.9-11.6-3.9-11.6s0.8,10.4-0.8,11.3s-4.5-12.2-4.5-12.2s1.4,11.1,0.7,12s-1.9,0.2-3.3-3.6c-0.9-2.6-1.6-5.3-1.9-8
			c0,0,0.4,7.9,0.1,8.8s-1.4,2.1-2.9-3.8s-2.8-19-0.7-25.9L644.2,340.1z"/>
		<path class="st18" d="M229.3,169.8c0,0-30.4-10-23.4-45.7c0,0,20.1-24.3,40.1-14.4s17.4,29.9,17,32.5S229.3,169.8,229.3,169.8z"/>
		<path class="st12" d="M233.5,111.8c-12.4,1.8-21.6,12.6-21.4,25.1c0.1,3.9,1.1,7.8,3,11.3c4.1,8.4,7.4,15.1,11.3,19.9
			c4,4.8,6,11,5.6,17.2l-0.4,6.3c15,6.2,20.8-1.5,20.8-1.5l-1.1-14.4l0,0c15.5-3,11.3-31.7,10.6-40.2l0,0c0-0.3,0-0.6,0-1
			c-1-13.7-13-24-26.7-23C234.7,111.6,234.1,111.7,233.5,111.8z"/>
		<path class="st18" d="M257.8,147.4c0-1.2-0.9-2.2-2.1-2.2c-1.2,0-2.2,0.9-2.2,2.1c0,1.2,0.9,2.2,2.1,2.2
			C256.7,149.5,257.7,148.6,257.8,147.4C257.8,147.4,257.8,147.4,257.8,147.4z"/>
		<path class="st18" d="M237.5,151.1c0-1.2-0.9-2.2-2.1-2.2c-1.2,0-2.2,0.9-2.2,2.1c0,1.2,0.9,2.2,2.1,2.2c0,0,0,0,0,0
			C236.5,153.3,237.5,152.3,237.5,151.1z"/>
		<path class="st18" d="M230.7,145.4c-0.3,0-0.5,0-0.7-0.2c-0.4-0.3-0.4-0.9-0.1-1.3c0,0,0,0,0,0c1.7-1.8,4-2.9,6.5-3.2
			c0.5-0.1,0.9,0.3,1,0.8c0,0,0,0,0,0c0.1,0.5-0.3,0.9-0.8,1c-2,0.2-3.9,1.2-5.4,2.6C231.1,145.3,230.9,145.4,230.7,145.4z"/>
		<path class="st18" d="M250.9,139c-0.2-0.1-0.4-0.3-0.5-0.6c-0.1-0.5,0.1-1,0.6-1.1c0,0,0,0,0,0c2.4-0.6,5-0.3,7.2,0.8
			c0.4,0.2,0.6,0.8,0.4,1.2c-0.2,0.4-0.8,0.6-1.2,0.4l0,0c-1.8-0.9-3.9-1.1-5.9-0.7C251.3,139.1,251.1,139.1,250.9,139z"/>
		<path class="st11" d="M247.8,158.7c1.8-0.3,3.2-1.8,3.2-3.7c0-0.2-0.1-0.4-0.2-0.5c-2.5-2.6-2.6-6.8-2.6-6.8
			c0-0.4-0.3-0.8-0.8-0.8c-0.4,0-0.8,0.3-0.8,0.8c0.1,2.8,1,5.4,2.8,7.6c-0.1,0.6-0.6,2-3.1,2c-0.4,0-0.8,0.3-0.8,0.8
			c0,0.4,0.3,0.8,0.8,0.8C246.9,158.8,247.4,158.8,247.8,158.7z"/>
		<path class="st18" d="M218.2,156.3c3,4,7.7-28,22.6-30.5s21.9,18.9,21.9,18.9s2.5-12.7-3.8-22.1s-21.6-17.8-35.8-9
			S204.1,137,218.2,156.3z"/>
		<path class="st18" d="M217.2,115.7c-1.1-6.2-7-10.4-13.2-9.3c-6.2,1.1-10.4,7-9.3,13.2c1.1,6.2,7,10.4,13.2,9.3c0,0,0,0,0,0
			C214.1,127.8,218.3,121.9,217.2,115.7z"/>
		<path class="st18" d="M228.7,152.6c-0.7-3.9,1.9-7.5,5.8-8.2c3.9-0.7,7.5,1.9,8.2,5.8l0,0c0.7,3.9-1.9,7.5-5.8,8.2
			C233.1,159.1,229.4,156.5,228.7,152.6L228.7,152.6z M242.1,150.3c-0.6-3.5-4-5.9-7.5-5.3c-3.5,0.6-5.9,4-5.3,7.5s4,5.9,7.5,5.3
			c1.7-0.3,3.2-1.3,4.2-2.7C242,153.8,242.4,152,242.1,150.3z"/>
		<path class="st18" d="M249.2,149.1c-0.7-3.9,1.9-7.5,5.8-8.2c3.9-0.7,7.5,1.9,8.2,5.8l0,0c0.7,3.9-1.9,7.5-5.8,8.2
			C253.6,155.5,249.9,152.9,249.2,149.1L249.2,149.1z M255.1,141.5c-3.5,0.6-5.9,4-5.3,7.5c0.6,3.5,4,5.9,7.5,5.3
			c3.5-0.6,5.9-4,5.3-7.5l0,0c-0.3-1.7-1.3-3.2-2.7-4.2c-1.1-0.8-2.4-1.2-3.7-1.2C255.8,141.4,255.4,141.4,255.1,141.5L255.1,141.5z
			"/>
		<path class="st18" d="M242.6,150.5c3.6-3.1,6.6-1.3,6.8-1.2l0.3-0.5c0,0-3.5-2.1-7.4,1.2L242.6,150.5z"/>
		
			<rect x="217.6" y="152.5" transform="matrix(0.9945 -0.1047 0.1047 0.9945 -14.7734 24.2186)" class="st18" width="11.3" height="0.6"/>
		<path class="st6" d="M223.2,154.6c-0.5-0.8-1.2-1.3-2.1-1.6c-1.8-0.6-4.8-1.1-6.8,1.1c-2.8,3.3,3.9,10.9,9.7,6.4
			C224,160.5,225.7,158.7,223.2,154.6z"/>
		<path class="st11" d="M255.2,160.5c0,0-3.2-1.3-4.3-0.8c-0.7,0.4-1.2,1.1-1.4,1.9c-0.5-0.7-1.4-1.1-2.2-1
			c-1.4,0.2-5.4,3.5-5.4,3.5s5.2,5,9.2,3.6S255.2,160.5,255.2,160.5L255.2,160.5z"/>
		<path class="st8" d="M241.8,164.1c4.5-1,9-2.2,13.3-3.6c0,0-1.7,4.6-4.9,5.2S241.8,164.1,241.8,164.1z"/>
		<path class="st12" d="M262.7,547.6c0,0-4.6,37.6-1.2,42.2c1.9,2.6,46,13.6,48,7.8s-30.8-18.6-31.8-30c-0.6-7.2,0-14.5,1.6-21.6
			L262.7,547.6z"/>
		<path class="st18" d="M260.3,575c21.3,14.8,29.5,11.8,32.5,8.5c8.7,5.9,17.8,11.1,16.7,14.2c-2.1,5.8-46.1-5.2-48-7.8
			C260.2,588.1,260,582,260.3,575z"/>
		<path class="st12" d="M197.7,548c0,0-4.6,37.6-1.2,42.2c1.9,2.7,46,13.6,48,7.8s-30.9-18.6-31.9-30c-0.6-7.2,0-14.5,1.6-21.6
			L197.7,548z"/>
		<path class="st18" d="M195.4,575.3c21.3,14.8,29.5,11.8,32.5,8.5c8.8,5.9,17.8,11,16.7,14.2c-2.1,5.8-46.1-5.2-48-7.8
			C195.3,588.5,195.1,582.4,195.4,575.3z"/>
		<path class="st22" d="M228,192.6c0,0-2.2-9.3,4.1-9.4c6.3,3.1,13.7,2.8,19.7-0.6c0,0,4.1-0.1,3.8,7.9c0,0,25.4,7.6,33.8,13.8
			s19.9,44.7,23.3,73.9c3.1,26.4-2.6,51.9-7.5,63.7l-10.1-1.5c0,0-4.7-4.3-5.7-37.6c-0.7-24.6-2.9-20.9-2.9-20.9s2.1,18.4-4,28.1
			L214,312c0,0-8.8-4.3-14.4-36.8c0,0-15.9-7-13.3-40.1C188.6,206.5,207.4,198.8,228,192.6z"/>
		<path class="st18" d="M307.4,230.4l-43.6-7.4c-0.4-0.1-0.8,0.2-0.9,0.6l-10.3,60.7c-0.1,0.4,0.2,0.8,0.6,0.9l43.6,7.4
			c0.4,0.1,0.8-0.2,0.9-0.6l10.3-60.7C308.1,230.8,307.8,230.5,307.4,230.4z"/>
		
			<rect x="283.7" y="217.3" transform="matrix(0.1673 -0.9859 0.9859 0.1673 14.5184 470.2926)" class="st23" width="3.9" height="18.5"/>
		<path class="st23" d="M289,225.1c0.3-1.7-0.8-3.2-2.5-3.5s-3.2,0.8-3.5,2.5s0.8,3.2,2.5,3.5c0,0,0,0,0,0
			C287.2,227.9,288.7,226.8,289,225.1z"/>
		<path class="st10" d="M282.5,309.9c0,0,13.5,10.1,16.1,60.7S284.3,559,284.3,559l-29.3,1.5c0,0,3.5-184.5-1.1-185.1
			s-35.1,184.1-35.1,184.1L192,558c0,0-2.9-183.1,22-246L282.5,309.9z"/>
		<path class="st12" d="M274.5,253.8c0,0,7.6-8.7,11-11.2s4.9-7.5,6.9-6.2s-2.1,8.5-2.1,8.5s8.6-1.4,11.1-2.2s7.5-1.2,8.3,0.7
			s-11.9,5-11.9,5s7.5-1.3,7.8,1c0.3,1.9-8.4,4.6-8.4,4.6c2.3-0.6,4.7-1,7.1-1.2c1.5,0.1,2.9,2.1-1,3.9c-1.7,0.9-3.5,1.6-5.4,2.1
			c1.8-0.3,3.6-0.4,5.4-0.4c1,0.2,2.3,2.4-1.2,3.3c-6.1,1.7-18.5,4-25.9,2.3L274.5,253.8z"/>
		<path class="st22" d="M199.6,275.2c0,0,40.4,27.8,80.9-10.8l-3.7-13c0,0-51.7,6.4-61-20.8L199.6,275.2z"/>
		<path class="st18" d="M231,284.7c7.5,0,14.9-1.3,22-3.6c0.1-0.1,0.2-0.2,0.2-0.4c0-0.2-0.2-0.2-0.4-0.2
			c-32.4,10.6-52.9-5.4-53.1-5.6c-0.1-0.1-0.3-0.1-0.4,0c-0.1,0.1-0.1,0.3,0,0.4c0,0,0,0,0,0C199.5,275.5,211.3,284.7,231,284.7z"/>
		<path class="st18" d="M255.6,252.2c1.4,0,2.3,0,2.3-0.1c0.2,0,0.3-0.1,0.3-0.3c0,0,0,0,0,0c0-0.2-0.1-0.3-0.3-0.3l0,0
			c-0.4,0-35.4,2-40.7-21.1c0-0.2-0.2-0.3-0.3-0.2c-0.2,0-0.2,0.2-0.2,0.3C221.2,250.6,247.5,252.2,255.6,252.2z"/>
		<path class="st12" d="M295,340.3c0,0-8.4,7.9-10.8,11.5s-7.3,5.2-5.9,7.2s8.4-2.4,8.4-2.4s-1,8.6-1.8,11.2s-0.8,7.6,1,8.3
			s4.5-12,4.5-12s-1.1,10.9,0.4,11.9s5.1-12.7,5.1-12.7s-1.8,11.6-1.1,12.6s2,0.2,3.6-3.7c1.1-2.7,1.8-5.5,2.3-8.4
			c0,0-0.6,8.2-0.4,9.3s1.4,2.2,3.2-3.9s3.5-20,1.6-27.2L295,340.3z"/>
		<path class="st6" d="M754.3,374.4c0,0,5.8,10.4,7.1,14.6s5.6,7.4,3.6,8.9s-7.5-5-7.5-5s-1.6,8.8-1.7,11.6s-1.5,7.7-3.6,7.8
			s-0.7-13.3-0.7-13.3s-2.3,11.1-4.1,11.6s-1.1-14.1-1.1-14.1s-1.8,12-2.8,12.8s-2-0.4-2.4-4.8c-0.2-3-0.1-6,0.4-9
			c0,0-1.9,8.3-2.5,9.2s-2,1.8-1.9-4.8s2.7-20.8,6.9-27.3L754.3,374.4z"/>
		<path class="st6" d="M778.6,567.8c0,0,0.3,24.1,0.2,24.4s1.8,3.4,1.8,3.4l7.6,1.4l6.9-3.2c0,0-0.6-22.4,0.1-25.9
			S778.6,567.8,778.6,567.8z"/>
		<path class="st18" d="M795.1,593.7c0,0-8.8,3.1-16.2-2c0,0-29.2,10.9-28.3,19.2c0,0-1.2,2.5,11.4,1.9s32.2-1.1,32.8-1.4
			S797.7,612.5,795.1,593.7z"/>
		<path class="st6" d="M867.7,567.8c0,0,0.3,24.1,0.2,24.4s1.8,3.4,1.8,3.4l7.6,1.4l6.9-3.2c0,0-0.6-22.4,0.1-25.9
			S867.7,567.8,867.7,567.8z"/>
		<path class="st18" d="M884.1,593.7c0,0-8.8,3.1-16.2-2c0,0-29.1,10.9-28.2,19.2c0,0-1.2,2.5,11.4,1.9s32.2-1.1,32.8-1.4
			S886.8,612.5,884.1,593.7z"/>
		<polygon class="st9" points="878.8,337.9 885.3,589.7 865.6,589 820.1,401.9 796.3,591.7 775.6,589.7 760.7,337 792.4,312.8 		"/>
		<path class="st11" d="M795.8,157.7c0,0-2-3.1-3.6-1.8c-4.1,3.1,0,7.3,2.7,8.2L795.8,157.7z"/>
		<path class="st12" d="M795,146.4L795,146.4c0-0.3,0-0.6,0-1c0-13.8,11.2-25,25-25s25,11.2,25,25c0,3.6-0.8,7.2-2.3,10.5
			c-2.3,5.8-4.4,10.8-6.6,14.9c-3.6,6.9-4.8,14.7-3.5,22.3l1,6c-15.4,8.1-22.3,0.4-22.3,0.4l-0.2-11c0-1.4-1.2-2.6-2.6-2.7l0,0
			C789.4,184.6,794.9,155,795,146.4z"/>
		<path class="st18" d="M821.8,158.9c0-1.3,1.1-2.3,2.3-2.3s2.3,1.1,2.3,2.3c0,1.3-1.1,2.3-2.3,2.3
			C822.8,161.2,821.8,160.1,821.8,158.9C821.8,158.9,821.8,158.9,821.8,158.9z"/>
		<path class="st18" d="M801.3,155.3c0-1.3,1.1-2.3,2.3-2.3c1.3,0,2.3,1.1,2.3,2.3c0,1.3-1.1,2.3-2.3,2.3c0,0,0,0,0,0
			C802.3,157.6,801.3,156.6,801.3,155.3C801.3,155.3,801.3,155.3,801.3,155.3z"/>
		<path class="st18" d="M829,156.1c0.2,0,0.5-0.1,0.7-0.2c0.6-0.4,0.9-1.2,0.5-1.8c0,0,0,0,0,0c-1.2-1.9-4.7-5-9.9-2.4
			c-0.7,0.3-1,1.1-0.8,1.8c0.3,0.7,1.1,1,1.8,0.8c0.1,0,0.1-0.1,0.2-0.1c4.3-2.1,6.3,1.2,6.4,1.3C828,155.9,828.5,156.1,829,156.1z"
			/>
		<path class="st18" d="M807.2,152.4c0.8,0,1.4-0.6,1.4-1.3c0-0.3-0.1-0.5-0.2-0.7c-1.2-1.9-4.7-5-9.9-2.4c-0.7,0.3-0.9,1.2-0.6,1.8
			c0.3,0.6,1.1,0.9,1.8,0.6c4.3-2.1,6.3,1.2,6.4,1.3C806.3,152.1,806.7,152.3,807.2,152.4z"/>
		<polygon class="st18" points="847.1,147.5 840.3,164.4 835.7,163.4 833.1,141.6 		"/>
		<path class="st6" d="M835,162.9c0.4-0.8,1.1-1.4,2-1.8c1.7-0.7,4.8-1.4,6.8,0.7c3,3.1-3.2,11.2-9.2,7.1
			C834.6,168.9,832.9,167.1,835,162.9z"/>
		<path class="st11" d="M808.7,168c1.3,0.7,2.9,0.6,4.2-0.1c0.2-0.1,0.2-0.3,0.1-0.5c0,0,0,0,0,0c-0.1-0.2-0.4-0.2-0.5-0.1
			c-1.5,0.8-3.3,0.5-4.5-0.7c-0.3-0.2-0.5-0.5-0.5-0.8c0-0.3,0.3-0.6,0.8-1.1c2-2,3.2-4.6,3.4-7.3c0-0.2-0.1-0.4-0.3-0.5
			c-0.2,0-0.4,0.1-0.4,0.3c0,0,0,0,0,0c-0.2,2.6-1.4,5-3.2,6.9c-0.6,0.6-1,1.1-1,1.7c0.1,0.5,0.4,1,0.8,1.4
			C807.8,167.5,808.2,167.8,808.7,168z"/>
		<path class="st18" d="M799.1,136.8c0,0-3.6,2.5-4.6,17.6c0,0-1.1-16.9,0.8-18.7S799.1,136.8,799.1,136.8z"/>
		<path class="st8" d="M834.9,195.5h-26.4l-10.2,44.2v84.8c0,0,24.2,11.7,56.1-3.6l-9.3-99.3L834.9,195.5z"/>
		<path class="st10" d="M834.9,195.5c0,0,39.8,16.8,47.6,27.7s31.3,57.8,20.5,153.4h-21.4l-0.5-9.9l-39.7,3.9L834.9,195.5z"/>
		<path class="st10" d="M808.5,195.5c0,0-39.8,16.8-47.6,27.7s-31.3,57.8-20.5,153.4h22.4l-0.5-9.9l39.7,3.9L808.5,195.5z"/>
		<path class="st24" d="M880.9,367.8c-0.4,0-0.7-0.3-0.7-0.6c0-0.8-5.1-78.9-15.8-112.8c0-0.4,0.2-0.7,0.6-0.8
			c0.3,0,0.6,0.1,0.7,0.4c10.7,34,15.8,112.3,15.9,113.1C881.6,367.5,881.3,367.8,880.9,367.8C880.9,367.8,880.9,367.8,880.9,367.8
			L880.9,367.8z"/>
		<path class="st24" d="M762.4,366.8L762.4,366.8c-0.4,0-0.7-0.3-0.7-0.7c0.1-3.8,3.6-92,10.7-112.2c0.1-0.4,0.5-0.5,0.9-0.4
			c0,0,0,0,0,0c0.4,0.1,0.5,0.5,0.4,0.9c-7,20-10.6,110.8-10.6,111.8C763.1,366.5,762.8,366.8,762.4,366.8
			C762.4,366.8,762.4,366.8,762.4,366.8z"/>
		<polygon class="st14" points="826.3,200.5 821.7,208.4 832.1,317.7 820.3,342.6 808.1,318.6 816.1,207.7 812.7,199.8 821.8,196.4 
					"/>
		<polygon class="st8" points="834.9,195.5 832.9,191.2 820.5,195.5 810.2,190.8 808.5,195.5 810.7,203.6 820,197.6 829.2,204.2 		
			"/>
		<path class="st18" d="M917.3,418.1h-6.8v-12.2H887v12.2h-6.8v-12.9c-0.1-3.2,2.3-6,5.6-6.1h25.9c3.2,0.2,5.7,2.9,5.6,6.1
			L917.3,418.1z"/>
		<path class="st14" d="M851.9,415.1h97.4c1,0,1.8,0.8,1.8,1.8c0,0,0,0,0,0v62.8c0,1-0.8,1.8-1.8,1.8l0,0h-97.4
			c-1,0-1.8-0.8-1.8-1.8l0,0v-62.8C850.1,415.9,850.9,415.1,851.9,415.1z"/>
		<path class="st18" d="M903.4,451h-0.2l-53.1-16.8c-0.3-0.1-0.4-0.5-0.3-0.8c0.1-0.2,0.4-0.4,0.6-0.3l52.9,16.7l47-16.8
			c0.3-0.1,0.6,0.1,0.7,0.4c0.1,0.3,0,0.6-0.3,0.7c0,0,0,0,0,0L903.7,451C903.6,451,903.5,451,903.4,451z"/>
		<rect x="900.5" y="444.7" class="st8" width="6" height="10.9"/>
		<path class="st6" d="M887.4,376.6c0,0-5,13.6-5.8,18s-4.9,7.9-2.7,9.2s7-5.7,7-5.7c0.7,1.7,1.2,3.4,1.5,5.2
			c0.4,2.8,1.7,5.3,3.8,5.2s1.3-4.9,1.3-4.9s1.2,5.1,3.5,4.4c1.8-0.6,1.5-7.4,1.5-7.4c0.4,1.9,1,3.7,1.7,5.5
			c0.7,1.3,3.2,1.8,3.2-2.6s-0.1-4.3-0.1-4.3c0.5,1.8,1.2,3.5,2.1,5.2c0.7,0.9,3.2,1.1,2.6-2.6c-1.2-6.5-4.6-19-9.4-25.2
			L887.4,376.6z"/>
		<path class="st18" d="M845.4,123.7c-1-1.3-2.4-2.4-3.9-3.1c-3.7-1.6-8-0.2-12.1-0.4c-6.1-0.2-11.5-3.9-17.6-4.7
			c-3.3-0.3-6.7-0.2-10,0.4c-0.7,0-1.3,0.2-2,0.5c-0.7,0.5-1.3,1.1-1.7,1.9c-1.2,2.1-2.3,4.6-4.4,5.9c-2.7,1.6-6.4,0.8-8.8,2.7
			c-2.6,2.1-2.3,6.1-1.8,9.4c0.1,0.6,0.3,1.3,0.6,1.8c0.6,0.7,1.4,1.1,2.3,1.3c3.1,0.8,6.4,0.7,9.4-0.2c3-0.9,5.8-2.6,9-2.7
			c3.9-0.1,7.3,2.3,10.8,4c2.4,1.2,5,2,7.6,2.5c3.2,0.6,6.5,0.7,9.6,1.7c5.3,1.7,13,8.5,15.7,0.8
			C850.6,138.9,849.9,129.2,845.4,123.7z"/>
		<polygon class="st25" points="850.4,202.6 842.6,234.9 850.4,238.1 838.9,304.9 834.9,195.5 		"/>
		<polygon class="st25" points="793,202.6 800.8,234.9 793,238.1 804.5,304.9 808.5,195.5 		"/>
		<path class="st8" d="M816.9,172.4l-13.2-0.9c0,0-1.4,5.8,5.4,6.4S816.9,172.4,816.9,172.4z"/>
	</g>
</g>
</svg>
